<svg width="37" height="36" viewBox="0 0 37 36" fill="none" xmlns="http://www.w3.org/2000/svg">
<g id="noto:briefcase">
<path id="Vector" d="M13.5331 7.66406H14.599V9.92531H13.5331V7.66406ZM23.4697 7.66406H24.5356V9.92531H23.4697V7.66406Z" fill="#1B273D"/>
<path id="Vector_2" d="M33.513 34.875H3.47266C2.40391 34.875 2.1761 33.5784 2.1761 33.5784C0.932971 24.6656 2.1761 11.4862 2.1761 11.4862C2.1761 10.3978 3.05922 9.51465 4.14766 9.51465H32.8324C33.9208 9.51465 34.8039 10.3978 34.8039 11.4862C34.8039 11.4862 36.0752 26.7018 34.8039 33.5784C34.8095 33.5784 34.4158 34.875 33.513 34.875Z" fill="#1B273D"/>
<path id="Vector_3" d="M33.513 34.875H3.47266C2.40391 34.875 2.1761 33.5784 2.1761 33.5784C0.932971 24.6656 2.1761 11.4862 2.1761 11.4862C2.1761 10.3978 3.05922 9.51465 4.14766 9.51465H32.8324C33.9208 9.51465 34.8039 10.3978 34.8039 11.4862C34.8039 11.4862 36.0752 26.7018 34.8039 33.5784C34.8095 33.5784 34.4158 34.875 33.513 34.875Z" fill="#1B273D"/>
<path id="Vector_4" d="M34.5369 13.2159C34.3934 12.1809 34.6466 10.9209 33.7691 10.1643C33.418 9.85018 32.9633 9.67689 32.4922 9.67774H4.49656C2.53343 9.72836 2.50812 11.6634 2.43781 13.2159H2.52781C2.54749 19.2909 3.42781 22.8909 18.5281 22.8909C34.4947 22.8909 34.5312 19.6931 34.5312 13.2159H34.5369Z" fill="#1B273D"/>
<path id="Vector_5" d="M4.15085 9.51465C1.83053 9.67777 2.61241 11.8715 2.53366 12.915C2.53366 12.915 3.0146 11.5762 4.07772 11.5762H33.0718C34.1433 11.5762 34.5118 12.915 34.5118 12.915C34.4387 11.8771 35.2515 9.7509 32.8355 9.51465H4.15085Z" fill="#1B273D"/>
<path id="Vector_6" d="M34.79 11.2191C34.7843 11.169 34.7759 11.1193 34.7647 11.0701C34.7619 11.0504 34.7534 11.0307 34.7506 11.011C34.7394 10.9632 34.7253 10.9154 34.7113 10.8704L34.6944 10.8198C34.6775 10.772 34.6578 10.7241 34.6381 10.6763C34.6333 10.6633 34.6267 10.651 34.6184 10.6398C34.5959 10.5891 34.5706 10.5413 34.5425 10.4935L34.5256 10.4682C34.4954 10.4177 34.4626 10.3689 34.4272 10.322C34.4244 10.3163 34.4188 10.3107 34.4159 10.3079C34.3766 10.2573 34.3372 10.2095 34.295 10.1616L34.2894 10.156C34.2444 10.1082 34.1966 10.0604 34.1459 10.0154C34.2697 10.6538 34.3484 11.236 34.3484 11.6016V13.1429H34.9278V13.0754L34.9194 12.9516L34.9025 12.7323L34.8941 12.6198C34.8884 12.5523 34.8856 12.4848 34.88 12.4229L34.8716 12.302C34.8688 12.2457 34.8631 12.1895 34.8603 12.1388C34.8575 12.1135 34.8575 12.0938 34.8547 12.0713C34.8519 12.0179 34.8463 11.9616 34.8434 11.9138C34.8406 11.8688 34.8378 11.8323 34.835 11.7929C34.8322 11.7732 34.8322 11.7507 34.8294 11.731C34.8238 11.6495 34.8181 11.5932 34.8153 11.5538C34.8125 11.5145 34.8097 11.4863 34.8097 11.4863C34.8097 11.416 34.8069 11.3457 34.7984 11.2754L34.79 11.2191ZM2.16219 11.6495C2.15938 11.6804 2.15656 11.7141 2.15375 11.7535C2.15027 11.7796 2.1484 11.8059 2.14813 11.8323C2.14531 11.8688 2.1425 11.9082 2.13688 11.9504C2.13688 11.9616 2.13406 11.9729 2.13406 11.9841V13.1429H2.71344V11.6016C2.71344 11.2248 2.80063 10.606 2.93281 9.93945C2.76125 10.0745 2.615 10.2348 2.49688 10.4176C2.49125 10.426 2.48844 10.4316 2.48281 10.4401C2.45188 10.4907 2.42094 10.5413 2.39281 10.5948C2.38438 10.6116 2.37594 10.6285 2.37031 10.6426C2.34781 10.6876 2.32813 10.7354 2.31125 10.7832C2.30281 10.8029 2.29438 10.8254 2.28875 10.8451C2.27188 10.8901 2.26063 10.9379 2.24656 10.9829C2.24094 11.0054 2.2325 11.0279 2.22969 11.0532C2.21844 11.101 2.21 11.1516 2.20438 11.2023C2.20156 11.2248 2.19594 11.2473 2.19313 11.267C2.18469 11.3401 2.17906 11.4104 2.17906 11.4863C2.17906 11.4863 2.17625 11.5285 2.16781 11.6073C2.165 11.6185 2.165 11.6354 2.16219 11.6495Z" fill="#A06841"/>
<path id="Vector_7" d="M34.5903 14.7122C34.5875 17.6793 34.16 19.1447 32.4022 20.565C30.3912 22.1906 26.0769 22.9162 18.4184 22.9162C11.2072 22.9162 6.85062 22.1034 4.7075 20.3568C2.88218 18.8718 2.49406 17.3643 2.46875 14.7122H2.13687C2.19312 20.7309 3.34062 24.2859 18.5309 24.2859C34.61 24.2859 34.9222 21.1218 34.9278 14.7122H34.5903Z" fill="#1B273D"/>
<path id="Vector_8" d="M34.8969 13.0726C34.8266 12.077 34.7787 11.4863 34.7787 11.4863C34.7787 10.8985 34.52 10.3754 34.115 10.0126C34.2387 10.651 34.3175 11.2332 34.3175 11.5988V13.0951C34.3175 16.3154 34.3175 18.6441 32.4837 20.1263C30.4728 21.752 26.1584 22.4776 18.5 22.4776C11.2887 22.4776 6.93218 21.6648 4.78905 19.9182C2.83718 18.3291 2.68249 15.9048 2.68249 12.901V11.6016C2.68249 11.2248 2.76968 10.606 2.90186 9.93945C2.66676 10.1235 2.47669 10.3588 2.34609 10.6273C2.21548 10.8958 2.14778 11.1905 2.14811 11.4891C2.14811 11.4891 2.13124 11.6635 2.10593 11.9841V12.901C2.10593 19.2713 2.82874 23.057 18.5028 23.057C34.9166 23.057 34.8997 19.7579 34.8969 13.0726Z" fill="#FFB636"/>
<path id="Vector_9" d="M1.84155 30.3469C1.91187 31.1035 2.08062 32.8669 2.17905 33.5785C2.17905 33.5785 2.40405 34.875 3.47562 34.875H33.5159C34.4187 34.875 34.8125 33.5785 34.8125 33.5785C34.9362 32.9119 35.1078 31.2666 35.1978 30.3863C35.1978 30.3863 34.7056 31.095 32.2644 31.6463C29.8259 32.1947 24.9828 31.7954 19.9259 31.7897C13.1984 31.7813 6.13343 31.9979 4.24343 31.5197C2.64312 31.1175 1.84155 30.3469 1.84155 30.3469Z" fill="#1B273D"/>
<path id="Vector_10" d="M19.1302 7.27872C20.2749 7.28716 21.3605 7.48403 22.2239 7.77091C22.5277 7.87216 23.7821 8.65685 24.2264 8.56403C24.4627 8.50778 24.9745 8.31091 24.8536 7.66403C24.7186 6.93841 23.6639 6.86247 22.8539 6.56435C21.7092 6.14528 20.3902 5.99341 19.1302 5.99341C17.918 5.99341 16.6608 6.13403 15.5499 6.51091C14.723 6.79216 13.1508 7.19435 13.3139 7.95372C13.4686 8.68216 14.3067 8.61466 14.5121 8.51341C15.1083 8.22091 15.5836 7.97341 16.2502 7.73153C17.108 7.41935 18.1571 7.2731 19.1302 7.27872Z" fill="#1B273D"/>
<path id="Vector_11" d="M19.0964 6.29441C21.6614 6.29441 22.7442 7.07066 23.3348 7.4841C24.7748 8.49098 24.8733 7.91723 24.8536 7.6641C24.7776 6.67129 23.7651 5.9316 22.9355 5.52941C21.7655 4.96129 20.4126 4.75879 19.1217 4.75879C17.8814 4.75879 16.5961 4.94723 15.457 5.46191C14.6105 5.8416 13.1142 6.79504 13.283 7.83285C13.418 8.64848 14.4895 7.85535 14.6976 7.71754C15.3108 7.32379 16.4301 6.29441 19.0964 6.29441Z" fill="#1B273D"/>
<path id="Vector_12" opacity="0.68" d="M13.6205 7.66417C13.3955 7.24792 13.8933 6.71917 14.1098 6.53917C14.543 6.18198 15.0323 5.87542 15.5526 5.66448C15.8198 5.5576 16.5989 5.39448 16.6383 5.81354C16.6777 6.23823 15.6061 6.6601 15.3361 6.79229C14.3742 7.26198 13.8342 8.06354 13.6205 7.66417Z" fill="white"/>
<path id="Vector_13" d="M20.2044 26.7383H16.7956C16.5762 26.7383 16.3962 26.5612 16.3962 26.339V24.1508C16.3962 23.9315 16.5734 23.7515 16.7956 23.7515H20.2016C20.4209 23.7515 20.6009 23.9287 20.6009 24.1508V26.339C20.6009 26.5612 20.4237 26.7383 20.2044 26.7383Z" fill="#1B273D"/>
<path id="Vector_14" d="M20.4575 23.0652H16.5425C16.3766 23.0652 16.2416 22.9302 16.2416 22.7643V21.5802C16.2416 21.4143 16.3766 21.2793 16.5425 21.2793H20.4603C20.6263 21.2793 20.7613 21.4143 20.7613 21.5802V22.7643C20.7585 22.9302 20.6235 23.0652 20.4575 23.0652ZM20.2072 26.1702H16.7928C16.6353 26.1702 16.506 26.0409 16.506 25.8834V23.9793C16.506 23.8218 16.6353 23.6924 16.7928 23.6924H20.21C20.3675 23.6924 20.4969 23.8218 20.4969 23.9793V25.8834C20.4941 26.0409 20.3675 26.1702 20.2072 26.1702Z" fill="white"/>
<path id="Vector_15" d="M17.029 22.1709C17.029 22.8178 16.9306 22.8881 16.7169 22.8881C16.5031 22.8881 16.4694 22.68 16.4694 22.1653C16.4694 21.6506 16.5059 21.4734 16.7337 21.4734C16.9615 21.4734 17.029 21.524 17.029 22.1709ZM17.389 24.8793C17.389 25.4981 17.4003 25.8637 17.1022 25.8637C16.8012 25.8637 16.7731 25.515 16.7731 24.8625C16.7731 24.3928 16.7731 24.0075 17.0853 24.0075C17.3947 24.0046 17.389 24.2578 17.389 24.8793Z" fill="#FFB636"/>
</g>
</svg>
