<svg width="34" height="34" viewBox="0 0 34 34" fill="none" xmlns="http://www.w3.org/2000/svg">
<g id="fxemoji:leftmagnifyingglass">
<path id="Vector" d="M4.56749 5.259C8.7993 1.2623 15.6604 1.2623 19.8921 5.259C23.7648 8.91652 24.0927 14.6534 20.8772 18.6638L22.5451 20.2391L20.4288 22.2379L18.7608 20.6626C14.5144 23.6994 8.44011 23.3898 4.56743 19.7323C0.335688 15.7355 0.335688 9.25569 4.56749 5.259Z" fill="#005189"/>
<path id="Vector_2" d="M12.2298 20.8416C17.1104 20.8416 21.0668 17.105 21.0668 12.4956C21.0668 7.88628 17.1104 4.14966 12.2298 4.14966C7.34933 4.14966 3.3929 7.88628 3.3929 12.4956C3.3929 17.105 7.34933 20.8416 12.2298 20.8416Z" fill="#70C4EA"/>
<path id="Vector_3" d="M6.27034 17.4533C9.72141 20.7126 15.3167 20.7126 18.7677 17.4533C19.7221 16.5519 20.4114 15.4952 20.8378 14.3696C20.4892 15.8766 19.6971 17.3104 18.4565 18.482C15.0054 21.7414 9.41016 21.7414 5.9591 18.482C3.46249 16.1241 2.77332 12.7068 3.88895 9.7627C3.26778 12.4476 4.05988 15.3656 6.27034 17.4533Z" fill="#00A7E0"/>
<path id="Vector_4" d="M31.4997 30.6948C32.5146 29.7363 32.9028 28.5345 32.3626 28.0242L22.929 19.8444C22.3887 19.334 21.5025 19.336 20.4877 20.2945C19.4728 21.253 19.4708 22.09 20.0111 22.6002L28.6721 31.5096C29.2124 32.0199 30.4849 31.6533 31.4997 30.6948Z" fill="#1F356B"/>
<path id="Vector_5" d="M30.4695 26.383L26.9341 29.722L22.6692 25.3347L25.8242 22.355L30.4695 26.383Z" fill="#5BC0A4"/>
</g>
</svg>
